ffmpeg started on 2025-05-12 at 13:57:45
Report written to "D:\Convert\FFMetrics\reports\psnr_report-6.txt"
Log level: 32
Command line:
ffmpeg -hide_banner -nostdin -i "G:\\\xc0\xed\xe8\xec\xe5\\\xce\xed\xe3\xee\xe8\xed\xe3\xe8\\!_35_\xcb\xe5\xf2\xee_2024\\DreamCast\\\xc0\xf2\xf0\xe8 - \xcc\xee\xe8 \xe4\xee\xf0\xee\xe3\xe8\xe5 \xec\xee\xec\xe5\xed\xf2\xfb\\[DC] Atri - My Dear Moments - 13_Telegram_HEVC.mkv" -i "G:\\\xc0\xed\xe8\xec\xe5\\\xce\xed\xe3\xee\xe8\xed\xe3\xe8\\!_35_\xcb\xe5\xf2\xee_2024\\DreamCast\\\xc0\xf2\xf0\xe8 - \xcc\xee\xe8 \xe4\xee\xf0\xee\xe3\xe8\xe5 \xec\xee\xec\xe5\xed\xf2\xfb\\[DC] Atri - My Dear Moments - 13_Telegram.mp4" -lavfi "[0:v]settb=AVTB,setpts=PTS-STARTPTS,format=pix_fmts=yuv420p10,fps=24000/1001,scale=1920:1080:flags=bicubic[main];[1:v]settb=AVTB,setpts=PTS-STARTPTS,format=pix_fmts=yuv420p,fps=24000/1001,scale=1920:1080:flags=bicubic[ref];[main][ref]psnr=eof_action=endall:stats_file='D\\:/Convert/FFMetrics/logs/psnr_logfile-6.txt'" -f null -
Input #0, matroska,webm, from 'G:\Аниме\Онгоинги\!_35_Лето_2024\DreamCast\Атри - Мои дорогие моменты\[DC] Atri - My Dear Moments - 13_Telegram_HEVC.mkv':
  Metadata:
    COMPATIBLE_BRANDS: isomiso2avc1mp41
    MAJOR_BRAND     : isom
    MINOR_VERSION   : 512
    ENCODER         : Lavf61.7.100
  Duration: 00:26:56.68, start: -0.021000, bitrate: 951 kb/s
  Stream #0:0: Video: hevc (Main 10), yuv420p10le(tv, bt709, progressive), 1920x1080 [SAR 1:1 DAR 16:9], 23.98 fps, 23.98 tbr, 1k tbn (default)
      Metadata:
        HANDLER_NAME    : VideoHandler
        VENDOR_ID       : [0][0][0][0]
        ENCODER         : Lavc61.19.100 libx265
        BPS             : 753778
        DURATION        : 00:26:56.573708333
        NUMBER_OF_FRAMES: 38759
        NUMBER_OF_BYTES : 152317190
        _STATISTICS_WRITING_APP: mkvpropedit v66.0.0 ('Josie') 64-bit
        _STATISTICS_WRITING_DATE_UTC: 2025-05-06 15:50:52
        _STATISTICS_TAGS: BPS DURATION NUMBER_OF_FRAMES NUMBER_OF_BYTES
  Stream #0:1: Audio: aac (LC), 48000 Hz, stereo, fltp (default)
      Metadata:
        HANDLER_NAME    : SoundHandler
        VENDOR_ID       : [0][0][0][0]
        ENCODER         : Lavc61.19.100 aac
        BPS             : 194027
        DURATION        : 00:26:56.682000000
        NUMBER_OF_FRAMES: 75783
        NUMBER_OF_BYTES : 39210136
        _STATISTICS_WRITING_APP: mkvpropedit v66.0.0 ('Josie') 64-bit
        _STATISTICS_WRITING_DATE_UTC: 2025-05-06 15:50:52
        _STATISTICS_TAGS: BPS DURATION NUMBER_OF_FRAMES NUMBER_OF_BYTES
Input #1, mov,mp4,m4a,3gp,3g2,mj2, from 'G:\Аниме\Онгоинги\!_35_Лето_2024\DreamCast\Атри - Мои дорогие моменты\[DC] Atri - My Dear Moments - 13_Telegram.mp4':
  Metadata:
    major_brand     : isom
    minor_version   : 512
    compatible_brands: isomiso2avc1mp41
    encoder         : Lavf61.1.100
  Duration: 00:26:56.64, start: 0.000000, bitrate: 3467 kb/s
  Stream #1:0[0x1](und): Video: h264 (High) (avc1 / 0x31637661), yuv420p(tv, bt709, progressive), 1920x1080 [SAR 1:1 DAR 16:9], 3320 kb/s, 23.98 fps, 23.98 tbr, 24k tbn (default)
      Metadata:
        handler_name    : VideoHandler
        vendor_id       : [0][0][0][0]
        encoder         : Lavc61.3.100 h264_qsv
  Stream #1:1[0x2](und): Audio: aac (HE-AACv2) (mp4a / 0x6134706D), 48000 Hz, stereo, fltp, 144 kb/s (default)
      Metadata:
        handler_name    : SoundHandler
        vendor_id       : [0][0][0][0]
Stream mapping:
  Stream #0:0 (hevc) -> settb:default
  Stream #1:0 (h264) -> settb:default
  psnr:default -> Stream #0:0 (wrapped_avframe)
  Stream #0:1 -> #0:1 (aac (native) -> pcm_s16le (native))
Output #0, null, to 'pipe:':
  Metadata:
    COMPATIBLE_BRANDS: isomiso2avc1mp41
    MAJOR_BRAND     : isom
    MINOR_VERSION   : 512
    encoder         : Lavf61.7.100
  Stream #0:0: Video: wrapped_avframe, yuv420p10le(tv, bt709, progressive), 1920x1080 [SAR 1:1 DAR 16:9], q=2-31, 200 kb/s, 23.98 fps, 23.98 tbn
      Metadata:
        encoder         : Lavc61.19.100 wrapped_avframe
  Stream #0:1: Audio: pcm_s16le, 48000 Hz, stereo, s16, 1536 kb/s (default)
      Metadata:
        HANDLER_NAME    : SoundHandler
        VENDOR_ID       : [0][0][0][0]
        _STATISTICS_TAGS: BPS DURATION NUMBER_OF_FRAMES NUMBER_OF_BYTES
        BPS             : 194027
        DURATION        : 00:26:56.682000000
        NUMBER_OF_FRAMES: 75783
        NUMBER_OF_BYTES : 39210136
        _STATISTICS_WRITING_APP: mkvpropedit v66.0.0 ('Josie') 64-bit
        _STATISTICS_WRITING_DATE_UTC: 2025-05-06 15:50:52
        encoder         : Lavc61.19.100 pcm_s16le
frame=  174 fps=0.0 q=-0.0 size=N/A time=00:00:07.25 bitrate=N/A speed=13.8x    frame=  427 fps=414 q=-0.0 size=N/A time=00:00:17.80 bitrate=N/A speed=17.3x    frame=  710 fps=457 q=-0.0 size=N/A time=00:00:29.61 bitrate=N/A speed=  19x    frame=  987 fps=479 q=-0.0 size=N/A time=00:00:41.16 bitrate=N/A speed=  20x    frame= 1248 fps=483 q=-0.0 size=N/A time=00:00:52.05 bitrate=N/A speed=20.2x    frame= 1497 fps=484 q=-0.0 size=N/A time=00:01:02.43 bitrate=N/A speed=20.2x    frame= 1714 fps=474 q=-0.0 size=N/A time=00:01:11.48 bitrate=N/A speed=19.8x    frame= 1951 fps=473 q=-0.0 size=N/A time=00:01:21.37 bitrate=N/A speed=19.7x    frame= 2208 fps=475 q=-0.0 size=N/A time=00:01:32.09 bitrate=N/A speed=19.8x    frame= 2444 fps=474 q=-0.0 size=N/A time=00:01:41.93 bitrate=N/A speed=19.8x    frame= 2713 fps=478 q=-0.0 size=N/A time=00:01:53.15 bitrate=N/A speed=19.9x    frame= 2983 fps=482 q=-0.0 size=N/A time=00:02:04.41 bitrate=N/A speed=20.1x    frame= 3240 fps=483 q=-0.0 size=N/A time=00:02:15.13 bitrate=N/A speed=20.2x    frame= 3489 fps=483 q=-0.0 size=N/A time=00:02:25.52 bitrate=N/A speed=20.1x    frame= 3712 fps=480 q=-0.0 size=N/A time=00:02:34.82 bitrate=N/A speed=  20x    frame= 3945 fps=478 q=-0.0 size=N/A time=00:02:44.53 bitrate=N/A speed=19.9x    frame= 4147 fps=473 q=-0.0 size=N/A time=00:02:52.96 bitrate=N/A speed=19.7x    frame= 4346 fps=468 q=-0.0 size=N/A time=00:03:01.26 bitrate=N/A speed=19.5x    frame= 4559 fps=465 q=-0.0 size=N/A time=00:03:10.14 bitrate=N/A speed=19.4x    frame= 4780 fps=464 q=-0.0 size=N/A time=00:03:19.36 bitrate=N/A speed=19.3x    frame= 5024 fps=464 q=-0.0 size=N/A time=00:03:29.54 bitrate=N/A speed=19.3x    frame= 5246 fps=463 q=-0.0 size=N/A time=00:03:38.80 bitrate=N/A speed=19.3x    frame= 5479 fps=462 q=-0.0 size=N/A time=00:03:48.51 bitrate=N/A speed=19.3x    frame= 5748 fps=464 q=-0.0 size=N/A time=00:03:59.73 bitrate=N/A speed=19.4x    frame= 6008 fps=466 q=-0.0 size=N/A time=00:04:10.58 bitrate=N/A speed=19.4x    frame= 6274 fps=468 q=-0.0 size=N/A time=00:04:21.67 bitrate=N/A speed=19.5x    frame= 6540 fps=470 q=-0.0 size=N/A time=00:04:32.81 bitrate=N/A speed=19.6x    frame= 6777 fps=469 q=-0.0 size=N/A time=00:04:42.65 bitrate=N/A speed=19.6x    frame= 7028 fps=470 q=-0.0 size=N/A time=00:04:53.12 bitrate=N/A speed=19.6x    frame= 7286 fps=471 q=-0.0 size=N/A time=00:05:03.88 bitrate=N/A speed=19.6x    frame= 7546 fps=472 q=-0.0 size=N/A time=00:05:14.73 bitrate=N/A speed=19.7x    frame= 7808 fps=473 q=-0.0 size=N/A time=00:05:25.65 bitrate=N/A speed=19.7x    frame= 8064 fps=474 q=-0.0 size=N/A time=00:05:36.33 bitrate=N/A speed=19.8x    frame= 8330 fps=475 q=-0.0 size=N/A time=00:05:47.43 bitrate=N/A speed=19.8x    frame= 8581 fps=476 q=-0.0 size=N/A time=00:05:57.89 bitrate=N/A speed=19.8x    frame= 8862 fps=477 q=-0.0 size=N/A time=00:06:09.61 bitrate=N/A speed=19.9x    frame= 9118 fps=478 q=-0.0 size=N/A time=00:06:20.29 bitrate=N/A speed=19.9x    frame= 9395 fps=479 q=-0.0 size=N/A time=00:06:31.84 bitrate=N/A speed=  20x    frame= 9658 fps=480 q=-0.0 size=N/A time=00:06:42.81 bitrate=N/A speed=  20x    frame= 9927 fps=481 q=-0.0 size=N/A time=00:06:54.03 bitrate=N/A speed=20.1x    frame=10162 fps=481 q=-0.0 size=N/A time=00:07:03.84 bitrate=N/A speed=  20x    frame=10392 fps=480 q=-0.0 size=N/A time=00:07:13.43 bitrate=N/A speed=  20x    frame=10634 fps=480 q=-0.0 size=N/A time=00:07:23.52 bitrate=N/A speed=  20x    frame=10914 fps=481 q=-0.0 size=N/A time=00:07:35.20 bitrate=N/A speed=  20x    frame=11181 fps=482 q=-0.0 size=N/A time=00:07:46.34 bitrate=N/A speed=20.1x    frame=11469 fps=483 q=-0.0 size=N/A time=00:07:58.35 bitrate=N/A speed=20.1x    frame=11724 fps=483 q=-0.0 size=N/A time=00:08:08.98 bitrate=N/A speed=20.2x    frame=11967 fps=483 q=-0.0 size=N/A time=00:08:19.12 bitrate=N/A speed=20.1x    frame=12220 fps=483 q=-0.0 size=N/A time=00:08:29.67 bitrate=N/A speed=20.2x    frame=12481 fps=484 q=-0.0 size=N/A time=00:08:40.56 bitrate=N/A speed=20.2x    frame=12703 fps=483 q=-0.0 size=N/A time=00:08:49.82 bitrate=N/A speed=20.1x    frame=12938 fps=482 q=-0.0 size=N/A time=00:08:59.62 bitrate=N/A speed=20.1x    frame=13197 fps=483 q=-0.0 size=N/A time=00:09:10.42 bitrate=N/A speed=20.1x    frame=13452 fps=483 q=-0.0 size=N/A time=00:09:21.06 bitrate=N/A speed=20.1x    frame=13710 fps=483 q=-0.0 size=N/A time=00:09:31.82 bitrate=N/A speed=20.2x    frame=13950 fps=483 q=-0.0 size=N/A time=00:09:41.83 bitrate=N/A speed=20.1x    frame=14201 fps=483 q=-0.0 size=N/A time=00:09:52.30 bitrate=N/A speed=20.1x    frame=14414 fps=482 q=-0.0 size=N/A time=00:10:01.18 bitrate=N/A speed=20.1x    frame=14688 fps=482 q=-0.0 size=N/A time=00:10:12.61 bitrate=N/A speed=20.1x    frame=14934 fps=482 q=-0.0 size=N/A time=00:10:22.87 bitrate=N/A speed=20.1x    frame=15184 fps=482 q=-0.0 size=N/A time=00:10:33.29 bitrate=N/A speed=20.1x    frame=15444 fps=483 q=-0.0 size=N/A time=00:10:44.14 bitrate=N/A speed=20.1x    frame=15714 fps=484 q=-0.0 size=N/A time=00:10:55.40 bitrate=N/A speed=20.2x    frame=15985 fps=484 q=-0.0 size=N/A time=00:11:06.70 bitrate=N/A speed=20.2x    frame=16189 fps=483 q=-0.0 size=N/A time=00:11:15.21 bitrate=N/A speed=20.1x    frame=16391 fps=481 q=-0.0 size=N/A time=00:11:23.64 bitrate=N/A speed=20.1x    frame=16639 fps=481 q=-0.0 size=N/A time=00:11:33.98 bitrate=N/A speed=20.1x    frame=16886 fps=481 q=-0.0 size=N/A time=00:11:44.28 bitrate=N/A speed=20.1x    frame=17134 fps=481 q=-0.0 size=N/A time=00:11:54.63 bitrate=N/A speed=20.1x    frame=17396 fps=482 q=-0.0 size=N/A time=00:12:05.55 bitrate=N/A speed=20.1x    frame=17655 fps=482 q=-0.0 size=N/A time=00:12:16.36 bitrate=N/A speed=20.1x    frame=17931 fps=483 q=-0.0 size=N/A time=00:12:27.87 bitrate=N/A speed=20.1x    frame=18197 fps=483 q=-0.0 size=N/A time=00:12:38.96 bitrate=N/A speed=20.2x    frame=18467 fps=484 q=-0.0 size=N/A time=00:12:50.22 bitrate=N/A speed=20.2x    frame=18729 fps=484 q=-0.0 size=N/A time=00:13:01.15 bitrate=N/A speed=20.2x    frame=18986 fps=484 q=-0.0 size=N/A time=00:13:11.87 bitrate=N/A speed=20.2x    frame=19223 fps=484 q=-0.0 size=N/A time=00:13:21.75 bitrate=N/A speed=20.2x    frame=19465 fps=484 q=-0.0 size=N/A time=00:13:31.85 bitrate=N/A speed=20.2x    frame=19725 fps=484 q=-0.0 size=N/A time=00:13:42.69 bitrate=N/A speed=20.2x    frame=19951 fps=484 q=-0.0 size=N/A time=00:13:52.12 bitrate=N/A speed=20.2x    frame=20196 fps=483 q=-0.0 size=N/A time=00:14:02.34 bitrate=N/A speed=20.2x    frame=20460 fps=484 q=-0.0 size=N/A time=00:14:13.35 bitrate=N/A speed=20.2x    frame=20722 fps=484 q=-0.0 size=N/A time=00:14:24.28 bitrate=N/A speed=20.2x    frame=20993 fps=485 q=-0.0 size=N/A time=00:14:35.58 bitrate=N/A speed=20.2x    frame=21232 fps=484 q=-0.0 size=N/A time=00:14:45.55 bitrate=N/A speed=20.2x    frame=21494 fps=484 q=-0.0 size=N/A time=00:14:56.47 bitrate=N/A speed=20.2x    frame=21740 fps=484 q=-0.0 size=N/A time=00:15:06.73 bitrate=N/A speed=20.2x    frame=22001 fps=485 q=-0.0 size=N/A time=00:15:17.62 bitrate=N/A speed=20.2x    frame=22257 fps=485 q=-0.0 size=N/A time=00:15:28.30 bitrate=N/A speed=20.2x    frame=22487 fps=484 q=-0.0 size=N/A time=00:15:37.89 bitrate=N/A speed=20.2x    frame=22753 fps=485 q=-0.0 size=N/A time=00:15:48.98 bitrate=N/A speed=20.2x    frame=23009 fps=485 q=-0.0 size=N/A time=00:15:59.66 bitrate=N/A speed=20.2x    frame=23235 fps=484 q=-0.0 size=N/A time=00:16:09.09 bitrate=N/A speed=20.2x    frame=23498 fps=485 q=-0.0 size=N/A time=00:16:20.06 bitrate=N/A speed=20.2x    frame=23758 fps=485 q=-0.0 size=N/A time=00:16:30.90 bitrate=N/A speed=20.2x    frame=24033 fps=485 q=-0.0 size=N/A time=00:16:42.37 bitrate=N/A speed=20.2x    frame=24256 fps=485 q=-0.0 size=N/A time=00:16:51.67 bitrate=N/A speed=20.2x    frame=24500 fps=485 q=-0.0 size=N/A time=00:17:01.85 bitrate=N/A speed=20.2x    frame=24761 fps=485 q=-0.0 size=N/A time=00:17:12.74 bitrate=N/A speed=20.2x    frame=25032 fps=485 q=-0.0 size=N/A time=00:17:24.08 bitrate=N/A speed=20.2x    frame=25295 fps=486 q=-0.0 size=N/A time=00:17:35.01 bitrate=N/A speed=20.3x    frame=25560 fps=486 q=-0.0 size=N/A time=00:17:46.06 bitrate=N/A speed=20.3x    frame=25833 fps=486 q=-0.0 size=N/A time=00:17:57.45 bitrate=N/A speed=20.3x    frame=26093 fps=486 q=-0.0 size=N/A time=00:18:08.29 bitrate=N/A speed=20.3x    frame=26377 fps=487 q=-0.0 size=N/A time=00:18:20.14 bitrate=N/A speed=20.3x    frame=26624 fps=487 q=-0.0 size=N/A time=00:18:30.44 bitrate=N/A speed=20.3x    frame=26869 fps=487 q=-0.0 size=N/A time=00:18:40.66 bitrate=N/A speed=20.3x    frame=27117 fps=487 q=-0.0 size=N/A time=00:18:51.00 bitrate=N/A speed=20.3x    frame=27348 fps=486 q=-0.0 size=N/A time=00:19:00.63 bitrate=N/A speed=20.3x    frame=27604 fps=486 q=-0.0 size=N/A time=00:19:11.31 bitrate=N/A speed=20.3x    frame=27884 fps=487 q=-0.0 size=N/A time=00:19:22.99 bitrate=N/A speed=20.3x    frame=28123 fps=487 q=-0.0 size=N/A time=00:19:32.96 bitrate=N/A speed=20.3x    frame=28343 fps=486 q=-0.0 size=N/A time=00:19:42.13 bitrate=N/A speed=20.3x    frame=28581 fps=486 q=-0.0 size=N/A time=00:19:52.06 bitrate=N/A speed=20.3x    frame=28790 fps=485 q=-0.0 size=N/A time=00:20:00.78 bitrate=N/A speed=20.2x    frame=29029 fps=485 q=-0.0 size=N/A time=00:20:10.75 bitrate=N/A speed=20.2x    frame=29227 fps=484 q=-0.0 size=N/A time=00:20:19.00 bitrate=N/A speed=20.2x    frame=29429 fps=483 q=-0.0 size=N/A time=00:20:27.43 bitrate=N/A speed=20.2x    frame=29653 fps=483 q=-0.0 size=N/A time=00:20:36.77 bitrate=N/A speed=20.1x    frame=29869 fps=482 q=-0.0 size=N/A time=00:20:45.78 bitrate=N/A speed=20.1x    frame=30094 fps=482 q=-0.0 size=N/A time=00:20:55.17 bitrate=N/A speed=20.1x    frame=30364 fps=482 q=-0.0 size=N/A time=00:21:06.43 bitrate=N/A speed=20.1x    frame=30540 fps=481 q=-0.0 size=N/A time=00:21:13.77 bitrate=N/A speed=20.1x    frame=30750 fps=481 q=-0.0 size=N/A time=00:21:22.53 bitrate=N/A speed=  20x    frame=30969 fps=480 q=-0.0 size=N/A time=00:21:31.66 bitrate=N/A speed=  20x    frame=31183 fps=480 q=-0.0 size=N/A time=00:21:40.59 bitrate=N/A speed=  20x    frame=31416 fps=479 q=-0.0 size=N/A time=00:21:50.30 bitrate=N/A speed=  20x    frame=31682 fps=480 q=-0.0 size=N/A time=00:22:01.40 bitrate=N/A speed=  20x    frame=31907 fps=479 q=-0.0 size=N/A time=00:22:10.78 bitrate=N/A speed=  20x    frame=32125 fps=479 q=-0.0 size=N/A time=00:22:19.88 bitrate=N/A speed=  20x    frame=32379 fps=479 q=-0.0 size=N/A time=00:22:30.47 bitrate=N/A speed=  20x    frame=32641 fps=479 q=-0.0 size=N/A time=00:22:41.40 bitrate=N/A speed=  20x    frame=32926 fps=480 q=-0.0 size=N/A time=00:22:53.28 bitrate=N/A speed=  20x    frame=33159 fps=480 q=-0.0 size=N/A time=00:23:03.00 bitrate=N/A speed=  20x    frame=33419 fps=480 q=-0.0 size=N/A time=00:23:13.85 bitrate=N/A speed=  20x    frame=33683 fps=480 q=-0.0 size=N/A time=00:23:24.86 bitrate=N/A speed=  20x    frame=33955 fps=480 q=-0.0 size=N/A time=00:23:36.20 bitrate=N/A speed=  20x    frame=34114 fps=479 q=-0.0 size=N/A time=00:23:42.83 bitrate=N/A speed=  20x    frame=34361 fps=479 q=-0.0 size=N/A time=00:23:53.14 bitrate=N/A speed=  20x    frame=34620 fps=479 q=-0.0 size=N/A time=00:24:03.94 bitrate=N/A speed=  20x    frame=34856 fps=479 q=-0.0 size=N/A time=00:24:13.78 bitrate=N/A speed=  20x    frame=35118 fps=479 q=-0.0 size=N/A time=00:24:24.71 bitrate=N/A speed=  20x    frame=35373 fps=480 q=-0.0 size=N/A time=00:24:35.34 bitrate=N/A speed=  20x    frame=35623 fps=480 q=-0.0 size=N/A time=00:24:45.77 bitrate=N/A speed=  20x    frame=35857 fps=479 q=-0.0 size=N/A time=00:24:55.53 bitrate=N/A speed=  20x    frame=36125 fps=480 q=-0.0 size=N/A time=00:25:06.71 bitrate=N/A speed=  20x    frame=36364 fps=480 q=-0.0 size=N/A time=00:25:16.68 bitrate=N/A speed=  20x    frame=36560 fps=479 q=-0.0 size=N/A time=00:25:24.85 bitrate=N/A speed=  20x    frame=36786 fps=479 q=-0.0 size=N/A time=00:25:34.28 bitrate=N/A speed=  20x    frame=37053 fps=479 q=-0.0 size=N/A time=00:25:45.41 bitrate=N/A speed=  20x    frame=37289 fps=479 q=-0.0 size=N/A time=00:25:55.26 bitrate=N/A speed=  20x    frame=37505 fps=478 q=-0.0 size=N/A time=00:26:04.27 bitrate=N/A speed=  20x    frame=37741 fps=478 q=-0.0 size=N/A time=00:26:14.11 bitrate=N/A speed=19.9x    frame=37993 fps=478 q=-0.0 size=N/A time=00:26:24.62 bitrate=N/A speed=19.9x    frame=38234 fps=478 q=-0.0 size=N/A time=00:26:34.67 bitrate=N/A speed=19.9x    frame=38456 fps=478 q=-0.0 size=N/A time=00:26:43.93 bitrate=N/A speed=19.9x    frame=38716 fps=478 q=-0.0 size=N/A time=00:26:54.77 bitrate=N/A speed=19.9x    [Parsed_psnr_10 @ 000001ed18caf740] PSNR y:49.236040 u:50.217292 v:50.125421 average:49.525923 min:41.417289 max:inf
[out#0/null @ 000001ed0bfdd500] video:16654KiB audio:303132KiB subtitle:0KiB other streams:0KiB global headers:0KiB muxing overhead: unknown
frame=38759 fps=478 q=-0.0 Lsize=N/A time=00:26:56.57 bitrate=N/A speed=19.9x    
